<svg id="Layer_1" data-name="Layer 1" xmlns="http://www.w3.org/2000/svg" xmlns:xlink="http://www.w3.org/1999/xlink" viewBox="0 0 180.99 56.5"><defs><style>.cls-1,.cls-2,.cls-6{fill:#231f20;}.cls-2{font-size:24.26px;font-family:Algerian;}.cls-3,.cls-4,.cls-5,.cls-6,.cls-7,.cls-8{stroke:#231f20;}.cls-3,.cls-4,.cls-5,.cls-6,.cls-7,.cls-8,.cls-9{stroke-miterlimit:10;}.cls-3{fill:url(#linear-gradient);}.cls-4{fill:url(#linear-gradient-2);}.cls-5{fill:#fff200;}.cls-7{fill:url(#linear-gradient-3);}.cls-8{fill:none;}.cls-9{fill:#fff;stroke:#fff;}.cls-10{fill:#808285;}.cls-11{fill:#a7a9ac;}</style><linearGradient id="linear-gradient" x1="97.49" y1="20.94" x2="98.73" y2="31" gradientTransform="matrix(-1, -0.01, -0.01, 1, 127.65, -6.21)" gradientUnits="userSpaceOnUse"><stop offset="0" stop-color="#fff200"/><stop offset="0.25" stop-color="#ffee04"/><stop offset="0.49" stop-color="#fee210"/><stop offset="0.74" stop-color="#fdce23"/><stop offset="0.99" stop-color="#fbb23f"/><stop offset="1" stop-color="#fbb040"/></linearGradient><linearGradient id="linear-gradient-2" x1="104.06" y1="-18.83" x2="105.45" y2="-7.56" gradientTransform="matrix(-0.73, 0.68, 0.68, 0.73, 105.68, -39.96)" xlink:href="#linear-gradient"/><linearGradient id="linear-gradient-3" x1="64.8" y1="15.31" x2="81.09" y2="29.77" gradientTransform="matrix(-0.45, -0.89, -0.89, 0.45, 113.15, 76.91)" xlink:href="#linear-gradient"/></defs><polygon class="cls-1" points="75.92 19.94 75.6 19.11 73.48 19.97 73.83 20.79 75.92 19.94"/><path class="cls-1" d="M81,19.63l-.28-.84c-.73.24-1.45.48-2.16.75l.31.84C79.55,20.11,80.26,19.87,81,19.63Z" transform="translate(-1.89 -0.82)"/><polygon class="cls-1" points="82.29 17.82 82.05 16.96 79.86 17.62 80.13 18.47 82.29 17.82"/><path class="cls-1" d="M87.43,17.79l-.2-.86c-.74.17-1.48.35-2.21.56l.23.86C86,18.14,86.7,18,87.43,17.79Z" transform="translate(-1.89 -0.82)"/><polygon class="cls-1" points="88.82 16.27 88.66 15.39 86.42 15.86 86.61 16.72 88.82 16.27"/><path class="cls-1" d="M94,16.54l-.13-.88c-.75.11-1.5.21-2.25.36l.15.87C92.54,16.75,93.29,16.65,94,16.54Z" transform="translate(-1.89 -0.82)"/><path class="cls-1" d="M97.36,16.14l-.08-.88c-.76.05-1.51.16-2.27.24l.11.89C95.87,16.31,96.61,16.19,97.36,16.14Z" transform="translate(-1.89 -0.82)"/><path class="cls-1" d="M100.7,15.93l0-.89c-.76.05-1.53.06-2.29.13l.07.88C99.21,16,100,16,100.7,15.93Z" transform="translate(-1.89 -0.82)"/><path class="cls-1" d="M104.05,16l0-.89c-.77,0-1.53-.05-2.29,0v.89C102.55,15.9,103.3,15.92,104.05,16Z" transform="translate(-1.89 -0.82)"/><path class="cls-1" d="M107.37,16.24l.12-.88c-.76-.11-1.52-.19-2.28-.23l-.07.88C105.89,16.06,106.63,16.13,107.37,16.24Z" transform="translate(-1.89 -0.82)"/><path class="cls-1" d="M110.63,16.88l.22-.86c-.74-.19-1.49-.36-2.25-.49l-.15.88C109.18,16.53,109.91,16.69,110.63,16.88Z" transform="translate(-1.89 -0.82)"/><path class="cls-1" d="M113.73,17.91l.42-.79a23.14,23.14,0,0,0-2.21-.79l-.26.85A20.07,20.07,0,0,1,113.73,17.91Z" transform="translate(-1.89 -0.82)"/><path class="cls-1" d="M116.54,19.51l.63-.65a10.59,10.59,0,0,0-2-1.25l-.51.75A10,10,0,0,1,116.54,19.51Z" transform="translate(-1.89 -0.82)"/><path class="cls-1" d="M117.81,22.29l.77-.46a2.4,2.4,0,0,0-.6-2.16l-.69.59A2.17,2.17,0,0,1,117.81,22.29Z" transform="translate(-1.89 -0.82)"/><path class="cls-1" d="M115.63,24.59l.8-.37a6.06,6.06,0,0,0,.89-.64l.41-.36.36-.43-.79.42-.36.41-.42.35A6.75,6.75,0,0,1,115.63,24.59Z" transform="translate(-1.89 -0.82)"/><path class="cls-1" d="M112.7,26l.8-.37a15.38,15.38,0,0,0,2-.88l-.8.36A21,21,0,0,1,112.7,26Z" transform="translate(-1.89 -0.82)"/><path class="cls-1" d="M109.62,27l.71-.52,1.1-.21c.37-.07.71-.2,1.06-.3l-.79.38C111,26.61,110.32,26.81,109.62,27Z" transform="translate(-1.89 -0.82)"/><path class="cls-1" d="M106.46,27.76l-.85-.16c.27-.09,1-.26,1.5-.4s1.12-.3,1.67-.4l-.19.48C107.88,27.47,107.17,27.62,106.46,27.76Z" transform="translate(-1.89 -0.82)"/><path class="cls-1" d="M103.25,28.23l-.85,0c.72-.07,1.44-.2,2.16-.34l.85,0C104.69,28.06,104,28.16,103.25,28.23Z" transform="translate(-1.89 -0.82)"/><path class="cls-1" d="M100,28.26l-.85,0a12.22,12.22,0,0,0,2.18.06l.85,0A13.25,13.25,0,0,1,100,28.26Z" transform="translate(-1.89 -0.82)"/><path class="cls-1" d="M97.37,26.67l-.87-.11a2.51,2.51,0,0,0,1.6,1.5H99A2.44,2.44,0,0,1,97.37,26.67Z" transform="translate(-1.89 -0.82)"/><path class="cls-1" d="M97.77,23.55l-.8-.38a6.3,6.3,0,0,0-.62,2.26l.87.19A5.49,5.49,0,0,1,97.77,23.55Z" transform="translate(-1.89 -0.82)"/><path class="cls-1" d="M99.58,20.85l-.67-.58a16,16,0,0,0-1.39,1.88l.76.47A13.87,13.87,0,0,1,99.58,20.85Z" transform="translate(-1.89 -0.82)"/><path class="cls-1" d="M101.94,18.54l-.58-.68c-.58.5-1.15,1-1.69,1.58l.64.61A21.26,21.26,0,0,1,101.94,18.54Z" transform="translate(-1.89 -0.82)"/><path class="cls-1" d="M104.6,16.56l-.48-.75c-.64.43-1.27.87-1.88,1.34l.54.7C103.37,17.4,104,17,104.6,16.56Z" transform="translate(-1.89 -0.82)"/><path class="cls-1" d="M107.48,14.89l-.4-.79c-.69.34-1.35.72-2,1.12l.46.76C106.17,15.59,106.82,15.22,107.48,14.89Z" transform="translate(-1.89 -0.82)"/><path class="cls-1" d="M110.52,13.5l-.33-.82c-.71.29-1.42.58-2.11.92l.39.8C109.14,14.07,109.83,13.79,110.52,13.5Z" transform="translate(-1.89 -0.82)"/><path class="cls-1" d="M113.67,12.41l-.26-.86c-.74.21-1.45.47-2.18.73l.31.83C112.25,12.86,113,12.61,113.67,12.41Z" transform="translate(-1.89 -0.82)"/><path class="cls-1" d="M116.9,11.57l-.18-.86c-.75.15-1.49.33-2.23.53l.23.86C115.44,11.91,116.17,11.72,116.9,11.57Z" transform="translate(-1.89 -0.82)"/><path class="cls-1" d="M120.2,11l-.13-.88c-.75.11-1.5.22-2.25.37l.16.87Q119.07,11.15,120.2,11Z" transform="translate(-1.89 -0.82)"/><path class="cls-1" d="M123.53,10.64l-.07-.89c-.76.07-1.52.13-2.28.23l.11.88C122,10.76,122.78,10.71,123.53,10.64Z" transform="translate(-1.89 -0.82)"/><path class="cls-1" d="M126.87,10.48V9.59c-.76,0-1.52,0-2.28.09l0,.89C125.37,10.51,126.12,10.5,126.87,10.48Z" transform="translate(-1.89 -0.82)"/><path class="cls-1" d="M130.22,10.53l.05-.89c-.77,0-1.53-.06-2.29-.05v.89C128.72,10.46,129.47,10.51,130.22,10.53Z" transform="translate(-1.89 -0.82)"/><path class="cls-1" d="M133.54,10.86l.13-.88c-.76-.11-1.52-.2-2.28-.26l-.08.89C132.06,10.67,132.8,10.75,133.54,10.86Z" transform="translate(-1.89 -0.82)"/><polygon class="cls-1" points="134.85 10.78 135.14 9.94 134.02 9.61 132.89 9.35 132.72 10.22 133.8 10.46 134.85 10.78"/><path class="cls-1" d="M139.41,13.17l.68-.57a6.58,6.58,0,0,0-.93-.83c-.35-.21-.7-.41-1-.59l-.38.81c.32.16.63.33.92.51A5.51,5.51,0,0,1,139.41,13.17Z" transform="translate(-1.89 -0.82)"/><path class="cls-1" d="M139.65,15.87l.82.35a3.62,3.62,0,0,0,.23-2.5l-.85.26A2.73,2.73,0,0,1,139.65,15.87Z" transform="translate(-1.89 -0.82)"/><path class="cls-1" d="M137.75,18.42l.61.64a11,11,0,0,0,1.54-1.79l-.74-.5A10,10,0,0,1,137.75,18.42Z" transform="translate(-1.89 -0.82)"/><path class="cls-1" d="M135.14,20.38l.45.76a15.81,15.81,0,0,0,1.91-1.32l-.56-.69A14.82,14.82,0,0,1,135.14,20.38Z" transform="translate(-1.89 -0.82)"/><path class="cls-1" d="M132.28,21.3l-.15.88a2.73,2.73,0,0,0,1.31-.09,6,6,0,0,0,1.12-.42l-.36-.8A3.45,3.45,0,0,1,132.28,21.3Z" transform="translate(-1.89 -0.82)"/><path class="cls-1" d="M130.25,19.38l-.82.35a5.71,5.71,0,0,0,.6,1.08,4.48,4.48,0,0,0,.92.87l.5-.73a3.25,3.25,0,0,1-.71-.68A4,4,0,0,1,130.25,19.38Z" transform="translate(-1.89 -0.82)"/><path class="cls-1" d="M130,16.34l-.86-.18a11.92,11.92,0,0,0-.15,1.2,7,7,0,0,0,.1,1.21l.88-.15a6,6,0,0,1-.09-1C129.9,17,130,16.69,130,16.34Z" transform="translate(-1.89 -0.82)"/><polygon class="cls-1" points="129.48 12.68 128.77 12.14 128.1 13.13 127.58 14.21 128.41 14.53 128.87 13.57 129.48 12.68"/><path class="cls-1" d="M133.69,11.24l-.53-.72c-.31.25-.6.51-.9.76l-.44.38-.4.43.65.61.36-.4.42-.36C133.13,11.71,133.4,11.46,133.69,11.24Z" transform="translate(-1.89 -0.82)"/><path class="cls-1" d="M136.51,9.53l-.4-.79a18.26,18.26,0,0,0-2,1.15l.49.74A16.46,16.46,0,0,1,136.51,9.53Z" transform="translate(-1.89 -0.82)"/><path class="cls-1" d="M139.56,8.22l-.3-.84c-.72.26-1.44.54-2.14.86l.37.81C138.16,8.74,138.86,8.47,139.56,8.22Z" transform="translate(-1.89 -0.82)"/><path class="cls-1" d="M142.75,7.22l-.23-.86c-.74.2-1.47.42-2.2.65l.27.85C141.31,7.63,142,7.42,142.75,7.22Z" transform="translate(-1.89 -0.82)"/><path class="cls-1" d="M146,6.46l-.18-.87c-.74.15-1.49.31-2.23.5l.21.86C144.54,6.77,145.27,6.61,146,6.46Z" transform="translate(-1.89 -0.82)"/><path class="cls-1" d="M149.31,5.9,149.19,5c-.76.11-1.51.23-2.26.36l.16.88Q148.2,6.07,149.31,5.9Z" transform="translate(-1.89 -0.82)"/><text class="cls-2" transform="translate(68.88 45.67) scale(1.37 1)">Honey </text><path class="cls-1" d="M77.77,55.46v-.28l.7-.18a.35.35,0,0,0,.12-.07.17.17,0,0,0,0-.12V50.52h-1.4a.16.16,0,0,0-.12,0,.13.13,0,0,0-.06.1l-.17.81h-.5v-1.4h5.38v1.4h-.49l-.17-.81a.14.14,0,0,0-.07-.11.18.18,0,0,0-.11,0h-1.4v4.29a.13.13,0,0,0,0,.12.41.41,0,0,0,.11.07l.7.18v.28Z" transform="translate(-1.89 -0.82)"/><path class="cls-1" d="M82.17,55.46v-.27l.52-.15a.35.35,0,0,0,.12-.07s0-.06,0-.12V52.24a.19.19,0,0,0-.06-.15.35.35,0,0,0-.13-.08l-.53-.2v-.27l1.5-.2v.87h0a5.12,5.12,0,0,1,.49-.52,1.75,1.75,0,0,1,.44-.29,1.25,1.25,0,0,1,.46-.09,2,2,0,0,1,.42,0,.93.93,0,0,1,.38.17v.94h-.52l-.12-.29A.34.34,0,0,0,85,52a.71.71,0,0,0-.28-.06,1,1,0,0,0-.43.1,1.31,1.31,0,0,0-.34.24l-.28.28v2.27c0,.1.05.16.17.19l.65.15v.27Z" transform="translate(-1.89 -0.82)"/><path class="cls-1" d="M87.74,55.54a1.43,1.43,0,0,1-.71-.16,1.3,1.3,0,0,1-.45-.42,1.08,1.08,0,0,1-.15-.55,1,1,0,0,1,.21-.65,1.61,1.61,0,0,1,.56-.43,2.81,2.81,0,0,1,.71-.23,3.68,3.68,0,0,1,.7-.07h.21l.29,0,.19,0v-.55a.66.66,0,0,0-.24-.59,1,1,0,0,0-.61-.16,1.67,1.67,0,0,0-.44.06,3,3,0,0,0-.41.17c-.13.07-.26.13-.37.2l-.28.17h-.17l0-.73.5-.16a4.19,4.19,0,0,1,.56-.13,4.65,4.65,0,0,1,.69,0,2.6,2.6,0,0,1,.79.11,1.28,1.28,0,0,1,.62.38,1.22,1.22,0,0,1,.24.81v2.08a.27.27,0,0,0,.12.23.49.49,0,0,0,.28.09.54.54,0,0,0,.2,0l.22-.08H91v.32a1.44,1.44,0,0,1-.23.13,2.52,2.52,0,0,1-.33.14.89.89,0,0,1-.3.06.93.93,0,0,1-.6-.16.67.67,0,0,1-.19-.52h-.06a1.65,1.65,0,0,1-.52.44,2.18,2.18,0,0,1-.56.19A3.37,3.37,0,0,1,87.74,55.54Zm.41-.54a2.49,2.49,0,0,0,.62-.1,1.05,1.05,0,0,0,.53-.33V53.43a6.33,6.33,0,0,0-1,.07,1.47,1.47,0,0,0-.69.24.61.61,0,0,0-.25.53.64.64,0,0,0,.13.44.7.7,0,0,0,.31.23A1.31,1.31,0,0,0,88.15,55Z" transform="translate(-1.89 -0.82)"/><path class="cls-1" d="M93.34,55.5,91.67,52a.31.31,0,0,0-.09-.11l-.12-.07-.35-.14v-.27h2v.27l-.64.19,1,2.12.19.57h.07L94.94,52l-.59-.3v-.27h1.7v.27l-.36.23-.13.08a.26.26,0,0,0-.1.11l-1.19,2.56-.46.84Z" transform="translate(-1.89 -0.82)"/><path class="cls-1" d="M98.68,55.55a2.51,2.51,0,0,1-1.11-.24,1.78,1.78,0,0,1-.78-.71,2.14,2.14,0,0,1-.29-1.14,2.11,2.11,0,0,1,.28-1.09,2.06,2.06,0,0,1,.77-.78,2.25,2.25,0,0,1,1.15-.28,2.14,2.14,0,0,1,1,.22,1.59,1.59,0,0,1,.66.59,1.45,1.45,0,0,1,.22.79V53c0,.05,0,.1,0,.15s0,.09,0,.13H97.32l0-.39H99.7a1.76,1.76,0,0,0-.1-.64.83.83,0,0,0-.34-.42,1.1,1.1,0,0,0-.61-.15,1.26,1.26,0,0,0-.62.14,1,1,0,0,0-.39.37,1.6,1.6,0,0,0-.2.51,2.64,2.64,0,0,0-.06.55,2.35,2.35,0,0,0,.15.86,1.32,1.32,0,0,0,.51.61A1.72,1.72,0,0,0,99,55a2.31,2.31,0,0,0,.61-.08,3,3,0,0,0,.51-.21,2.86,2.86,0,0,0,.37-.21h.12v.43a3.87,3.87,0,0,1-.82.44A3,3,0,0,1,98.68,55.55Z" transform="translate(-1.89 -0.82)"/><path class="cls-1" d="M101.34,55.46v-.27L102,55a.35.35,0,0,0,.12-.07.14.14,0,0,0,.05-.12V50.39a.15.15,0,0,0-.06-.13.4.4,0,0,0-.13-.07l-.65-.21v-.27l1.68-.07v5.21a.12.12,0,0,0,.06.12.35.35,0,0,0,.12.07l.62.15v.27Z" transform="translate(-1.89 -0.82)"/><path class="cls-1" d="M104.34,55.46v-.27L105,55l.12-.07s0-.06,0-.12V50.39a.14.14,0,0,0-.05-.13l-.13-.07-.65-.21v-.27l1.68-.07v5.21a.14.14,0,0,0,0,.12l.12.07.62.15v.27Z" transform="translate(-1.89 -0.82)"/><path class="cls-1" d="M107.43,55.46v-.27l.65-.15a.35.35,0,0,0,.12-.07.14.14,0,0,0,0-.12V52.23a.17.17,0,0,0,0-.13.91.91,0,0,0-.14-.07l-.62-.18v-.27l1.66-.2v3.47a.17.17,0,0,0,0,.13.34.34,0,0,0,.12.06l.64.15v.27Zm1.17-4.84a.81.81,0,0,1-.31-.06.52.52,0,0,1-.22-.17.38.38,0,0,1-.08-.26.43.43,0,0,1,.18-.37.69.69,0,0,1,.43-.13.81.81,0,0,1,.46.12.41.41,0,0,1,.17.35.47.47,0,0,1-.31.46A.79.79,0,0,1,108.6,50.62Z" transform="translate(-1.89 -0.82)"/><path class="cls-1" d="M110.55,55.46v-.27l.51-.15.13-.07s0-.06,0-.12V52.2a.14.14,0,0,0,0-.13.4.4,0,0,0-.13-.07l-.5-.19v-.27l1.45-.2V52h0a2.22,2.22,0,0,1,.51-.44,1.72,1.72,0,0,1,.49-.18,2.09,2.09,0,0,1,.49,0,2,2,0,0,1,.74.14,1.12,1.12,0,0,1,.52.44,1.41,1.41,0,0,1,.2.78v2.17a.17.17,0,0,0,0,.13.35.35,0,0,0,.12.07l.46.15v.27h-2.08v-.27L114,55l.13-.07a.17.17,0,0,0,0-.13V53a2.15,2.15,0,0,0-.08-.61.63.63,0,0,0-.28-.38,1.18,1.18,0,0,0-.63-.13,2.45,2.45,0,0,0-.58.08,1,1,0,0,0-.51.31v2.58c0,.06,0,.1,0,.12a.35.35,0,0,0,.12.07l.39.15v.27Z" transform="translate(-1.89 -0.82)"/><path class="cls-1" d="M118.35,54.05a2.63,2.63,0,0,1-.49,0,1.42,1.42,0,0,1-.34-.08.51.51,0,0,0-.21.14.4.4,0,0,0-.09.27.39.39,0,0,0,.1.27.46.46,0,0,0,.23.15h1.59a2.19,2.19,0,0,1,.93.16,1,1,0,0,1,.48.39.9.9,0,0,1,.15.48,1.14,1.14,0,0,1-.32.79,2.23,2.23,0,0,1-.87.54,3.63,3.63,0,0,1-1.22.2,4.13,4.13,0,0,1-1-.12,1.67,1.67,0,0,1-.72-.35.69.69,0,0,1-.27-.55.76.76,0,0,1,.28-.61,1.44,1.44,0,0,1,.66-.31v-.05a1.66,1.66,0,0,1-.31-.14.82.82,0,0,1-.26-.23.55.55,0,0,1-.11-.34.69.69,0,0,1,.12-.41,1.13,1.13,0,0,1,.67-.39v0a2.7,2.7,0,0,1-.33-.22,1.11,1.11,0,0,1-.29-.35,1,1,0,0,1-.12-.5,1.2,1.2,0,0,1,.22-.72,1.44,1.44,0,0,1,.63-.5,2.4,2.4,0,0,1,1-.18,4.39,4.39,0,0,1,.54,0l.47.07h1.5l0,.48-1.08-.06v0a2.77,2.77,0,0,1,.28.37,1,1,0,0,1,.1.49,1.18,1.18,0,0,1-.47,1A2.09,2.09,0,0,1,118.35,54.05Zm.13,2.84a3.29,3.29,0,0,0,.71-.08,1.34,1.34,0,0,0,.56-.28A.65.65,0,0,0,120,56a.59.59,0,0,0-.21-.41,1,1,0,0,0-.69-.21h-1.47a.79.79,0,0,0-.34.21.65.65,0,0,0-.17.49.54.54,0,0,0,.14.39.93.93,0,0,0,.36.25,1.83,1.83,0,0,0,.46.12A2.27,2.27,0,0,0,118.48,56.89Zm-.12-3.18a1,1,0,0,0,.51-.12.8.8,0,0,0,.33-.35,1.36,1.36,0,0,0,.11-.58,1,1,0,0,0-.26-.75.93.93,0,0,0-.69-.25,1.05,1.05,0,0,0-.44.1.78.78,0,0,0-.33.32,1.15,1.15,0,0,0-.13.59,1.06,1.06,0,0,0,.25.78A.87.87,0,0,0,118.36,53.71Z" transform="translate(-1.89 -0.82)"/><path class="cls-1" d="M123.88,55.46v-.28l.43-.17a.36.36,0,0,0,.21-.21l1.73-3.92.5-.9h.48l2.14,4.83a.46.46,0,0,0,.08.13.28.28,0,0,0,.12.08l.45.16v.28h-2.25v-.28l.72-.22L127,51.51,126.8,51h-.07l-1.67,3.94.72.24v.28Zm1.69-1.89.21-.52h2l.21.52Z" transform="translate(-1.89 -0.82)"/><path class="cls-1" d="M132.43,54.05a2.63,2.63,0,0,1-.49,0,1.42,1.42,0,0,1-.34-.08.43.43,0,0,0-.2.14.36.36,0,0,0-.1.27.39.39,0,0,0,.1.27.45.45,0,0,0,.24.15h1.58a2.19,2.19,0,0,1,.93.16,1,1,0,0,1,.49.39,1,1,0,0,1,.14.48,1.09,1.09,0,0,1-.32.79,2.09,2.09,0,0,1-.87.54,3.59,3.59,0,0,1-1.22.2,4.18,4.18,0,0,1-1-.12,1.73,1.73,0,0,1-.72-.35.68.68,0,0,1-.26-.55.73.73,0,0,1,.28-.61,1.41,1.41,0,0,1,.65-.31v-.05a1.35,1.35,0,0,1-.3-.14.75.75,0,0,1-.27-.23.55.55,0,0,1-.11-.34.63.63,0,0,1,.13-.41A1.08,1.08,0,0,1,131,54a1.3,1.3,0,0,1,.36-.13v0l-.33-.22a1.26,1.26,0,0,1-.29-.35,1,1,0,0,1-.12-.5,1.2,1.2,0,0,1,.22-.72,1.44,1.44,0,0,1,.63-.5,2.43,2.43,0,0,1,1-.18,4.39,4.39,0,0,1,.54,0l.47.07H135l0,.48-1.09-.06v0a2.12,2.12,0,0,1,.28.37,1,1,0,0,1,.11.49,1.16,1.16,0,0,1-.48,1A2.09,2.09,0,0,1,132.43,54.05Zm.14,2.84a3.27,3.27,0,0,0,.7-.08,1.39,1.39,0,0,0,.57-.28.68.68,0,0,0,.22-.52.59.59,0,0,0-.21-.41,1,1,0,0,0-.69-.21h-1.47a.85.85,0,0,0-.34.21.69.69,0,0,0-.17.49.58.58,0,0,0,.14.39,1,1,0,0,0,.36.25,1.83,1.83,0,0,0,.46.12A2.29,2.29,0,0,0,132.57,56.89Zm-.13-3.18a1.08,1.08,0,0,0,.52-.12.73.73,0,0,0,.32-.35,1.23,1.23,0,0,0,.11-.58,1,1,0,0,0-.26-.75.93.93,0,0,0-.69-.25,1.05,1.05,0,0,0-.44.1.78.78,0,0,0-.33.32,1.26,1.26,0,0,0-.13.59,1.11,1.11,0,0,0,.25.78A.87.87,0,0,0,132.44,53.71Z" transform="translate(-1.89 -0.82)"/><path class="cls-1" d="M137.84,55.55a2.51,2.51,0,0,1-1.11-.24,1.86,1.86,0,0,1-.79-.71,2.14,2.14,0,0,1-.28-1.14,2.2,2.2,0,0,1,.27-1.09,2.16,2.16,0,0,1,.78-.78,2.22,2.22,0,0,1,1.14-.28,2.18,2.18,0,0,1,1,.22,1.62,1.62,0,0,1,.65.59,1.46,1.46,0,0,1,.23.79.66.66,0,0,1,0,.13.76.76,0,0,1,0,.15.51.51,0,0,1,0,.13h-3.25l0-.39h2.36a1.75,1.75,0,0,0-.11-.64.87.87,0,0,0-.33-.42,1.14,1.14,0,0,0-.62-.15,1.29,1.29,0,0,0-.62.14,1.15,1.15,0,0,0-.39.37,1.87,1.87,0,0,0-.2.51,2.64,2.64,0,0,0-.06.55,2.16,2.16,0,0,0,.16.86,1.3,1.3,0,0,0,.5.61,1.76,1.76,0,0,0,.95.22,2.37,2.37,0,0,0,.61-.08,3,3,0,0,0,.51-.21,3.75,3.75,0,0,0,.37-.21h.12v.43a4,4,0,0,1-.83.44A2.92,2.92,0,0,1,137.84,55.55Z" transform="translate(-1.89 -0.82)"/><path class="cls-1" d="M140.6,55.46v-.27l.52-.15a.35.35,0,0,0,.12-.07.14.14,0,0,0,0-.12V52.2a.17.17,0,0,0,0-.13L141.1,52l-.49-.19v-.27l1.44-.2V52h.06a2.42,2.42,0,0,1,.5-.44,1.78,1.78,0,0,1,.5-.18,2,2,0,0,1,.49,0,1.9,1.9,0,0,1,.73.14,1.14,1.14,0,0,1,.53.44,1.41,1.41,0,0,1,.2.78v2.17a.17.17,0,0,0,0,.13l.13.07.45.15v.27H143.6v-.27L144,55a.4.4,0,0,0,.13-.07.14.14,0,0,0,.05-.13V53a2.18,2.18,0,0,0-.07-.61.67.67,0,0,0-.28-.38,1.25,1.25,0,0,0-.64-.13,2.52,2.52,0,0,0-.58.08,1,1,0,0,0-.51.31v2.58a.14.14,0,0,0,.05.12l.13.07.39.15v.27Z" transform="translate(-1.89 -0.82)"/><path class="cls-1" d="M150.16,54.46h.13v.43a5.13,5.13,0,0,1-.75.44,2.47,2.47,0,0,1-2.14,0,1.83,1.83,0,0,1-.73-.73,2.12,2.12,0,0,1-.25-1,1.87,1.87,0,0,1,.2-.88,2.12,2.12,0,0,1,.54-.69,2.34,2.34,0,0,1,.78-.45,2.51,2.51,0,0,1,.9-.16,2.6,2.6,0,0,1,.59,0,2.79,2.79,0,0,1,.43.13l.28.12,0,.76h-.19l-.45-.24a2.26,2.26,0,0,0-.47-.22,1.8,1.8,0,0,0-.6-.09,1.08,1.08,0,0,0-.36.07.91.91,0,0,0-.31.18,1.55,1.55,0,0,0-.19.24,1.84,1.84,0,0,0-.16.39,2.74,2.74,0,0,0-.06.63,1.74,1.74,0,0,0,.39,1.21,1.42,1.42,0,0,0,1.11.43,1.61,1.61,0,0,0,.54-.09,2.67,2.67,0,0,0,.45-.21Z" transform="translate(-1.89 -0.82)"/><path class="cls-1" d="M151,57.21l0-.77h.2l.14.06.19,0,.19,0,.13,0a1.45,1.45,0,0,0,.32,0,.63.63,0,0,0,.24-.09.81.81,0,0,0,.2-.21,2.85,2.85,0,0,0,.19-.36c.07-.14.15-.33.25-.56l-.3-.45L151.3,52a.22.22,0,0,0-.09-.1l-.14-.07-.33-.14v-.27h2v.27l-.63.19L153.19,54l.2.47h.07l1-2.47-.57-.3v-.27h1.7v.27l-.38.23-.13.08a.22.22,0,0,0-.09.1l-1.73,4a2.62,2.62,0,0,1-.47.75,1.32,1.32,0,0,1-.55.35,1.77,1.77,0,0,1-.61.1h-.22l-.28,0Z" transform="translate(-1.89 -0.82)"/><path class="cls-3" d="M22.08,9.6C21.33,13,23.23,21.38,27.91,21S38.27,11.75,39,8.31s-2.43-5.94-7.1-5.59S22.83,6.16,22.08,9.6Z" transform="translate(-1.89 -0.82)"/><path class="cls-4" d="M6.58,17.18C10.38,19.33,23,23.07,26.74,21S24,12,20.2,9.81A15.76,15.76,0,0,0,6.5,9.6C2.74,11.63,2.77,15,6.58,17.18Z" transform="translate(-1.89 -0.82)"/><path class="cls-5" d="M9.2,36.17C12,42.4,22.56,45.3,32.79,42.65S59.88,30,57.08,23.76s-24.21-6.32-34.44-3.67S6.4,29.94,9.2,36.17Z" transform="translate(-1.89 -0.82)"/><path class="cls-6" d="M40.71,18.74l-2.85-.23a.84.84,0,0,0-.93.57,17.55,17.55,0,0,0,.7,8.27,32.41,32.41,0,0,0,6.2,9.83,1,1,0,0,0,1.35.08l1.68-1.38c-2-2.25-4.66-5.39-6-9.17A13.44,13.44,0,0,1,40.71,18.74Z" transform="translate(-1.89 -0.82)"/><path class="cls-6" d="M29,18.94l-1.83.39a.87.87,0,0,0-.72.59,17.17,17.17,0,0,0,.64,8.34c1.24,3.56,5.74,10.69,8.07,13.25a.78.78,0,0,0,.83.17l2.1-.76c.37-.13.5-.47.28-.73-2.22-2.63-6.81-9.07-8-12.57a17.49,17.49,0,0,1-.7-8.26C29.68,19.09,29.34,18.87,29,18.94Z" transform="translate(-1.89 -0.82)"/><path class="cls-6" d="M18.61,21.65l-1.89.73a.41.41,0,0,0-.26.27,15.09,15.09,0,0,0,.39,8.24c1.26,3.64,5.48,10.1,7.77,12.57a.86.86,0,0,0,.69.24L27,43.58c.74-.06,1.16-.69.76-1.18-2.36-2.94-6.46-8.84-7.61-12.15a17.82,17.82,0,0,1-.76-8.2C19.39,21.74,19,21.52,18.61,21.65Z" transform="translate(-1.89 -0.82)"/><ellipse class="cls-7" cx="61.34" cy="22.63" rx="10.93" ry="13.47" transform="translate(28.4 79.35) rotate(-81.91)"/><path class="cls-8" d="M67.18,15.8c-2.4,1-3.81,5.34-3.81,5.34l6.53-1.69" transform="translate(-1.89 -0.82)"/><ellipse class="cls-6" cx="54.57" cy="22.19" rx="1.87" ry="3" transform="translate(-5.59 30.06) rotate(-30.61)"/><ellipse class="cls-9" cx="54.18" cy="20.41" rx="0.6" ry="0.74" transform="translate(23.61 69.88) rotate(-80.95)"/><ellipse class="cls-10" cx="55" cy="24.22" rx="0.85" ry="0.35" transform="translate(-3.34 2.78) rotate(-3.7)"/><path class="cls-8" d="M68.55,26.63c.27,1.22-4.69,5-9.36,2.7" transform="translate(-1.89 -0.82)"/><path class="cls-8" d="M68.87,3.81s-10,4-5.61,8.06" transform="translate(-1.89 -0.82)"/><ellipse class="cls-6" cx="70.69" cy="2.87" rx="2.12" ry="1.55" transform="translate(-1.95 2.28) rotate(-2.51)"/><ellipse class="cls-11" cx="70.78" cy="2.07" rx="0.6" ry="0.75" transform="translate(59.9 71.48) rotate(-84.38)"/><path class="cls-8" d="M41,10.57s11.13-1.51,10.93,3.76" transform="translate(-1.89 -0.82)"/><ellipse class="cls-6" cx="39.23" cy="10.89" rx="2.01" ry="1.63" transform="translate(-2.16 0.19) rotate(-1.47)"/><ellipse class="cls-11" cx="38.35" cy="10.44" rx="0.57" ry="0.79" transform="translate(24.4 47.49) rotate(-87.57)"/><polygon class="cls-6" points="7.74 37.41 5.97 33.48 1.35 37.59 7.74 37.41"/><path class="cls-8" d="M25.89,42.54s10.9,7.38-1.17,8.44" transform="translate(-1.89 -0.82)"/><path class="cls-8" d="M16.84,42.35s10.91,7.38-1.16,8.43" transform="translate(-1.89 -0.82)"/><path class="cls-8" d="M46.37,37.51s1.75,6.14,9.42,3.2" transform="translate(-1.89 -0.82)"/><path class="cls-8" d="M49.42,35.2s1.75,6.14,9.42,3.21" transform="translate(-1.89 -0.82)"/></svg>